# xmcd
#
# Track frame offsets:
#	150
#	14527
#	30177
#	41922
#	60650
#	79329
#	98607
#	117777
#	130285
#	144807
#	160470
#	172182
#	191102
#	209782
#	229067
#	248227
#	272165
#
# Disc length: 3641 seconds
#
# Revision: 0
# Processed by: cddbd v1.5.2PL0 Copyright (c) Steve Scherf et al.
# Submitted via: audiograbber 1.83.01
#
DISCID=f40e3711
DTITLE=Sound Choice - SC2117 - Male Country Hits Vol 7
DYEAR=1900
DGENRE=Karaoke
TTITLE0=Hank Williams Jnr - All My Rowdy Friends Are Coming
TTITLE1=Willie Nelson and Waylon Jennings - Good Hearted Woman
TTITLE2=Willie Nelson - On The Road Again
TTITLE3=Oak Ridge Boys - Elvira
TTITLE4=Alabama - Mountain Music
TTITLE5=Hank Williams Jnr - Family Tradition
TTITLE6=Little Texas - God Blessed Texas
TTITLE7=Johnny Paycheck - Take This Job and Shove It
TTITLE8=Hank Williams Jnr - All My Rowdy Friends Are Coming (Vocals)
TTITLE9=Willie Nelson and Waylon Jennings - Good Hearted Woman (Vocals)
TTITLE10=Willie Nelson - On The Road Again (Vocals)
TTITLE11=Oak Ridge Boys - Elvira (Vocals)
TTITLE12=Alabama - Mountain Music (Vocals)
TTITLE13=Hank Williams Jnr - Family Tradition (Vocals)
TTITLE14=Little Texas - God Blessed Texas (Vocals)
TTITLE15=Johnny Paycheck - Take This Job and Shove It (Vocals)
TTITLE16=Data - Data Track
EXTD=
EXTT0=
EXTT1=
EXTT2=
EXTT3=
EXTT4=
EXTT5=
EXTT6=
EXTT7=
EXTT8=
EXTT9=
EXTT10=
EXTT11=
EXTT12=
EXTT13=
EXTT14=
EXTT15=
EXTT16=
PLAYORDER=
